<?xml version="1.0" encoding="UTF-8" standalone="no"?>
<!-- Created with Inkscape (http://www.inkscape.org/) -->

<svg
   version="1.1"
   id="svg1"
   viewBox="0 0 500 121.00164"
   sodipodi:docname="Logo_horizontal.svg"
   inkscape:version="1.3.2 (091e20e, 2023-11-25, custom)"
   xmlns:inkscape="http://www.inkscape.org/namespaces/inkscape"
   xmlns:sodipodi="http://sodipodi.sourceforge.net/DTD/sodipodi-0.dtd"
   xmlns="http://www.w3.org/2000/svg"
   xmlns:svg="http://www.w3.org/2000/svg">
  <defs
     id="defs1" />
  <sodipodi:namedview
     id="namedview1"
     pagecolor="#ffffff"
     bordercolor="#000000"
     borderopacity="0.25"
     inkscape:showpageshadow="2"
     inkscape:pageopacity="0.0"
     inkscape:pagecheckerboard="0"
     inkscape:deskcolor="#d1d1d1"
     inkscape:zoom="0.69397452"
     inkscape:cx="250.72967"
     inkscape:cy="61.241442"
     inkscape:window-width="1920"
     inkscape:window-height="1017"
     inkscape:window-x="-8"
     inkscape:window-y="-8"
     inkscape:window-maximized="1"
     inkscape:current-layer="g1">
    <inkscape:page
       x="0"
       y="0"
       inkscape:label="1"
       id="page1"
       width="500"
       height="121.00164"
       margin="0"
       bleed="0" />
  </sodipodi:namedview>
  <g
     id="g1"
     inkscape:groupmode="layer"
     inkscape:label="1"
     transform="translate(-146,-500.99998)">
    <path
       id="path1"
       d="m 200.941,423.695 h 1.43 v 21.379 h -1.43 z"
       style="fill:#5487c0;fill-opacity:1;fill-rule:evenodd;stroke:none"
       transform="scale(1.3333333)" />
    <path
       id="path2"
       d="m 109.5,462.34 h 70.43 v 1.836 h 7.183 v -1.836 h 1.84 v -7.188 h -1.84 v -27.109 h -7.183 v 27.109 H 109.5 Z"
       style="fill:#a3bade;fill-opacity:1;fill-rule:evenodd;stroke:none"
       transform="scale(1.3333333)" />
    <path
       id="path3"
       d="m 118.316,414.5 60.993,35.211 -0.918,1.594 6.218,3.593 0.922,-1.593 1.59,0.918 3.594,-6.219 -1.594,-0.922 13.555,-23.477 -6.219,-3.593 -13.559,23.48 -60.992,-35.215 z"
       style="fill:#5487c0;fill-opacity:1;fill-rule:evenodd;stroke:none"
       transform="scale(1.3333333)" />
    <path
       id="path4"
       d="m 154.648,379.344 35.215,60.992 -1.593,0.918 3.593,6.223 1.59,-0.918 0.922,1.589 6.223,-3.589 -0.922,-1.594 23.48,-13.555 -3.594,-6.222 -23.476,13.554 -35.215,-60.992 z"
       style="fill:#1162a6;fill-opacity:1;fill-rule:evenodd;stroke:none"
       transform="scale(1.3333333)" />
    <path
       id="path5"
       d="m 221.41,428.719 h 1.434 v 21.379 h -1.434 z"
       style="fill:#1162a6;fill-opacity:1;fill-rule:evenodd;stroke:none"
       transform="scale(1.3333333)" />
    <path
       id="path6"
       d="m 259.164,444.91 h -9.301 c -3.808,0 -6.758,-0.992 -8.84,-2.972 -2.285,-2.188 -3.429,-5.465 -3.429,-9.833 0,-5.109 1.117,-8.753 3.355,-10.937 1.93,-1.906 4.953,-2.859 9.071,-2.859 h 9.144 v 4.496 h -9.07 c -4.039,0 -6.098,2.136 -6.172,6.402 h 15.242 v 4.535 h -15.359 c 0,4.446 2.097,6.672 6.289,6.672 h 9.07 z m 31.402,-7.926 c 0,2.336 -0.496,4.102 -1.484,5.297 -1.449,1.75 -4.016,2.629 -7.699,2.629 h -14.711 v -4.648 h 13.832 c 2.922,0 4.383,-1.004 4.383,-3.012 0,-1.195 -0.317,-2.035 -0.949,-2.516 -0.637,-0.484 -1.668,-0.722 -3.09,-0.722 h -6.516 c -2.898,0 -5.055,-0.586 -6.48,-1.754 -1.497,-1.246 -2.258,-3.227 -2.286,-5.946 -0.023,-2.769 0.711,-4.789 2.211,-6.058 1.5,-1.297 3.825,-1.945 6.973,-1.945 h 14.52 v 4.648 h -13.641 c -2.922,0 -4.399,1.195 -4.422,3.582 -0.027,1.984 1.18,2.973 3.621,2.973 h 7.317 c 2.589,0 4.472,0.343 5.64,1.031 1.856,1.117 2.781,3.266 2.781,6.441 z m 27.02,7.926 h -9.297 c -3.812,0 -6.758,-0.992 -8.844,-2.972 -2.285,-2.188 -3.429,-5.465 -3.429,-9.833 0,-9.199 4.14,-13.796 12.425,-13.796 h 9.145 v 4.421 h -9.07 c -2.539,0 -4.332,0.915 -5.371,2.743 -0.79,1.398 -1.184,3.441 -1.184,6.136 0,2.618 0.18,4.395 0.535,5.336 0.887,2.313 2.895,3.469 6.02,3.469 h 9.07 z m 31.594,0 h -5.985 l -2.476,-6.402 h -11.586 l -2.324,6.402 h -5.676 l 11.051,-26.601 h 5.754 z m -10.25,-11.051 -4.039,-10.519 -3.965,10.519 z m 32.582,11.051 h -7.887 c -3.734,0 -6.391,-0.902 -7.965,-2.707 -1.449,-1.652 -2.172,-4.332 -2.172,-8.039 v -15.855 h 5.371 v 14.632 c 0,2.594 0.168,4.27 0.496,5.032 0.79,1.777 2.657,2.668 5.602,2.668 h 6.555 z m 30.488,0 h -5.984 l -2.477,-6.402 h -11.586 l -2.324,6.402 h -5.676 l 11.051,-26.601 h 5.754 z m -10.25,-11.051 -4.039,-10.519 -3.965,10.519 z m 38.262,11.051 h -6.289 l -11.434,-20.199 v 20.199 h -5.371 v -26.601 h 6.973 l 10.898,19.207 v -19.207 h 5.223 z m 28.277,-21.992 h -8.496 v 21.992 h -5.719 v -21.992 h -8.422 v -4.531 h 22.637 z m 25.574,21.992 h -9.301 c -3.808,0 -6.757,-0.992 -8.839,-2.972 -2.289,-2.188 -3.43,-5.465 -3.43,-9.833 0,-5.109 1.117,-8.753 3.352,-10.937 1.933,-1.906 4.957,-2.859 9.07,-2.859 h 9.148 v 4.496 h -9.07 c -4.039,0 -6.098,2.136 -6.176,6.402 h 15.246 v 4.535 h -15.359 c 0,4.446 2.098,6.672 6.289,6.672 h 9.07 z"
       style="fill:#1162a6;fill-opacity:1;fill-rule:nonzero;stroke:none"
       transform="scale(1.3333333)" />
    <path
       id="path7"
       d="m 246.07,466.242 h -4.183 c -1.715,0 -3.039,-0.445 -3.977,-1.336 -1.031,-0.984 -1.547,-2.457 -1.547,-4.426 0,-4.136 1.867,-6.207 5.594,-6.207 h 4.113 v 1.989 h -4.078 c -1.144,0 -1.953,0.414 -2.422,1.234 -0.351,0.629 -0.531,1.551 -0.531,2.762 0,1.18 0.082,1.98 0.242,2.402 0.399,1.039 1.305,1.559 2.711,1.559 h 4.078 z m 12.934,0 h -2.695 l -1.114,-2.879 h -5.215 l -1.042,2.879 h -2.559 l 4.976,-11.969 h 2.59 z m -4.613,-4.972 -1.821,-4.735 -1.781,4.735 z m 16.308,4.972 h -2.711 l -2.64,-4.699 h -2.985 v 4.699 h -2.433 v -11.969 h 6.121 c 1.359,0 2.367,0.258 3.019,0.774 0.719,0.57 1.09,1.512 1.114,2.828 0.035,1.84 -0.754,2.957 -2.368,3.344 z m -2.969,-8.332 c 0,-0.586 -0.191,-0.988 -0.582,-1.219 -0.343,-0.207 -0.914,-0.308 -1.714,-0.308 h -3.051 v 3.086 h 3.066 c 0.813,0 1.352,-0.063 1.613,-0.188 0.446,-0.207 0.668,-0.664 0.668,-1.371 z m 15.383,8.332 h -2.707 l -2.64,-4.699 h -2.985 v 4.699 h -2.437 v -11.969 h 6.125 c 1.359,0 2.363,0.258 3.015,0.774 0.723,0.57 1.094,1.512 1.118,2.828 0.031,1.84 -0.758,2.957 -2.368,3.344 z m -2.965,-8.332 c 0,-0.586 -0.195,-0.988 -0.582,-1.219 -0.343,-0.207 -0.918,-0.308 -1.714,-0.308 h -3.055 v 3.086 h 3.07 c 0.813,0 1.348,-0.063 1.613,-0.188 0.446,-0.207 0.668,-0.664 0.668,-1.371 z m 15.692,2.348 c -0.059,4.105 -2.031,6.187 -5.918,6.242 -1.496,0.023 -2.719,-0.277 -3.668,-0.906 -1.524,-1.02 -2.277,-2.809 -2.266,-5.371 0.012,-2.457 0.668,-4.176 1.973,-5.161 0.914,-0.687 2.223,-1.027 3.926,-1.027 2.425,0 4.101,0.684 5.027,2.055 0.641,0.949 0.949,2.34 0.926,4.168 z m -2.66,0.019 c 0.035,-2.824 -1.055,-4.238 -3.274,-4.238 -1.019,0 -1.812,0.344 -2.383,1.031 -0.597,0.719 -0.894,1.77 -0.894,3.153 0,1.293 0.168,2.254 0.5,2.882 0.488,0.938 1.418,1.407 2.777,1.407 1.199,0 2.059,-0.391 2.571,-1.168 0.457,-0.672 0.691,-1.696 0.703,-3.067 z m 13.308,5.965 h -4.183 c -1.715,0 -3.043,-0.445 -3.981,-1.336 -1.027,-0.984 -1.543,-2.457 -1.543,-4.426 0,-4.136 1.864,-6.207 5.594,-6.207 h 4.113 v 1.989 h -4.082 c -1.14,0 -1.949,0.414 -2.418,1.234 -0.351,0.629 -0.531,1.551 -0.531,2.762 0,1.18 0.082,1.98 0.242,2.402 0.399,1.039 1.301,1.559 2.707,1.559 h 4.082 z m 10.821,0 h -4.184 c -1.715,0 -3.039,-0.445 -3.977,-1.336 -1.031,-0.984 -1.543,-2.457 -1.543,-4.426 0,-2.296 0.5,-3.937 1.508,-4.921 0.867,-0.856 2.231,-1.286 4.082,-1.286 h 4.114 v 2.024 h -4.079 c -1.82,0 -2.746,0.961 -2.781,2.883 h 6.86 v 2.039 h -6.911 c 0,2 0.946,3 2.832,3 h 4.079 z m 13.035,0 h -2.711 l -2.641,-4.699 h -2.984 v 4.699 h -2.434 v -11.969 h 6.121 c 1.364,0 2.367,0.258 3.02,0.774 0.719,0.57 1.09,1.512 1.113,2.828 0.035,1.84 -0.754,2.957 -2.367,3.344 z m -2.965,-8.332 c 0,-0.586 -0.195,-0.988 -0.586,-1.219 -0.344,-0.207 -0.914,-0.308 -1.715,-0.308 h -3.051 v 3.086 h 3.071 c 0.808,0 1.347,-0.063 1.609,-0.188 0.445,-0.207 0.672,-0.664 0.672,-1.371 z m 7.168,8.332 h -2.555 v -11.969 h 2.555 z m 1.371,-14.902 -2.777,2.265 h -1.067 l 1.547,-2.265 z m 12.227,14.902 h -2.692 l -1.113,-2.879 h -5.215 l -1.047,2.879 h -2.555 l 4.973,-11.969 h 2.59 z m -4.614,-4.972 -1.816,-4.735 -1.785,4.735 z m 16.121,1.406 c 0,1.051 -0.222,1.847 -0.668,2.383 -0.652,0.789 -1.808,1.183 -3.464,1.183 h -6.622 v -2.09 h 6.227 c 1.316,0 1.973,-0.453 1.973,-1.355 0,-0.539 -0.145,-0.914 -0.43,-1.133 -0.285,-0.215 -0.75,-0.324 -1.391,-0.324 h -2.929 c -1.305,0 -2.278,-0.266 -2.918,-0.789 -0.672,-0.563 -1.016,-1.453 -1.028,-2.676 -0.011,-1.246 0.321,-2.156 0.996,-2.727 0.672,-0.582 1.719,-0.875 3.137,-0.875 h 6.535 v 2.094 h -6.14 c -1.317,0 -1.977,0.535 -1.989,1.61 -0.011,0.894 0.532,1.339 1.629,1.339 h 3.293 c 1.164,0 2.012,0.153 2.539,0.461 0.832,0.504 1.25,1.469 1.25,2.899 z m 16.703,-8.403 -4.527,6.688 v 5.281 h -2.469 l -0.019,-5.281 -4.457,-6.688 h 2.742 l 2.934,4.598 2.968,-4.598 z m 16.668,0 -4.921,11.969 h -2.536 l -5.144,-11.969 h 2.726 l 3.618,9.004 3.687,-9.004 z m 11.801,5.985 c -0.058,4.105 -2.031,6.187 -5.918,6.242 -1.496,0.023 -2.718,-0.277 -3.668,-0.906 -1.523,-1.02 -2.277,-2.809 -2.265,-5.371 0.011,-2.457 0.668,-4.176 1.972,-5.161 0.914,-0.687 2.223,-1.027 3.926,-1.027 2.426,0 4.102,0.684 5.027,2.055 0.641,0.949 0.95,2.34 0.926,4.168 z m -2.66,0.019 c 0.035,-2.824 -1.055,-4.238 -3.273,-4.238 -1.02,0 -1.813,0.344 -2.383,1.031 -0.598,0.719 -0.895,1.77 -0.895,3.153 0,1.293 0.168,2.254 0.5,2.882 0.492,0.938 1.418,1.407 2.778,1.407 1.199,0 2.058,-0.391 2.57,-1.168 0.457,-0.672 0.691,-1.696 0.703,-3.067 z m 12.211,5.965 h -3.551 c -1.679,0 -2.875,-0.406 -3.582,-1.215 -0.652,-0.746 -0.976,-1.949 -0.976,-3.621 v -7.133 h 2.418 v 6.586 c 0,1.164 0.074,1.922 0.222,2.262 0.356,0.801 1.196,1.203 2.52,1.203 h 2.949 z m 13.172,0 h -2.949 l -0.379,-0.41 c -1.176,0.434 -2.418,0.652 -3.719,0.652 -2.195,0 -3.734,-0.73 -4.613,-2.195 -0.563,-0.949 -0.86,-2.309 -0.895,-4.082 -0.031,-1.738 0.34,-3.133 1.117,-4.184 0.981,-1.328 2.567,-1.984 4.75,-1.972 3.946,0.023 5.934,2.094 5.969,6.207 0.012,1.637 -0.34,3.047 -1.047,4.238 z m -3.379,-5.949 c 0,-2.848 -1.086,-4.27 -3.258,-4.27 -2.137,0 -3.222,1.422 -3.258,4.27 -0.011,1.293 0.274,2.32 0.856,3.086 0.586,0.766 1.383,1.148 2.402,1.148 1.246,0 2.125,-0.414 2.641,-1.25 0.41,-0.664 0.617,-1.66 0.617,-2.984 z m 14.613,1.25 c 0,0.906 -0.035,1.527 -0.105,1.871 -0.184,0.856 -0.594,1.527 -1.235,2.008 -0.843,0.629 -2.097,0.949 -3.753,0.961 -2.333,0.008 -3.872,-0.563 -4.614,-1.719 -0.355,-0.559 -0.531,-1.48 -0.531,-2.758 v -7.633 h 2.418 v 7.204 c 0,0.046 -0.008,0.14 -0.02,0.293 0,0.136 0,0.25 0,0.339 0,1.579 0.914,2.387 2.747,2.418 0.992,0.012 1.683,-0.203 2.074,-0.648 0.398,-0.461 0.601,-1.258 0.601,-2.402 v -7.204 h 2.418 z m 11.422,4.699 h -4.187 c -1.715,0 -3.039,-0.445 -3.977,-1.336 -1.031,-0.984 -1.543,-2.457 -1.543,-4.426 0,-2.296 0.5,-3.937 1.508,-4.921 0.867,-0.856 2.23,-1.286 4.082,-1.286 h 4.117 v 2.024 h -4.082 c -1.82,0 -2.746,0.961 -2.781,2.883 h 6.863 v 2.039 h -6.914 c 0,2 0.945,3 2.832,3 h 4.082 z m 11.231,-9.894 h -3.825 v 9.894 h -2.57 v -9.894 h -3.793 v -2.039 h 10.188 z m 10.222,9.894 h -4.187 c -1.715,0 -3.039,-0.445 -3.977,-1.336 -1.027,-0.984 -1.543,-2.457 -1.543,-4.426 0,-2.296 0.504,-3.937 1.508,-4.921 0.871,-0.856 2.231,-1.286 4.082,-1.286 h 4.117 v 2.024 h -4.082 c -1.82,0 -2.746,0.961 -2.777,2.883 h 6.859 v 2.039 h -6.914 c 0,2 0.946,3 2.832,3 h 4.082 z m 12.844,-3.566 c 0,1.051 -0.223,1.847 -0.668,2.383 -0.652,0.789 -1.809,1.183 -3.465,1.183 h -6.621 v -2.09 h 6.227 c 1.316,0 1.972,-0.453 1.972,-1.355 0,-0.539 -0.144,-0.914 -0.429,-1.133 -0.286,-0.215 -0.75,-0.324 -1.391,-0.324 h -2.93 c -1.304,0 -2.277,-0.266 -2.918,-0.789 -0.672,-0.563 -1.015,-1.453 -1.027,-2.676 -0.012,-1.246 0.32,-2.156 0.996,-2.727 0.672,-0.582 1.719,-0.875 3.137,-0.875 h 6.535 v 2.094 h -6.141 c -1.316,0 -1.976,0.535 -1.988,1.61 -0.012,0.894 0.531,1.339 1.629,1.339 h 3.293 c 1.164,0 2.012,0.153 2.539,0.461 0.832,0.504 1.25,1.469 1.25,2.899 z"
       style="fill:#5487c0;fill-opacity:1;fill-rule:nonzero;stroke:none"
       transform="scale(1.3333333)" />
  </g>
</svg>
